<?xml version="1.0" encoding="UTF-8"?><svg id="App_Icon_Kit_B" xmlns="http://www.w3.org/2000/svg" xmlns:xlink="http://www.w3.org/1999/xlink" viewBox="0 0 1024 1024"><defs><style>.cls-1{fill:#d8d6cd;}.cls-2{fill:url(#linear-gradient);}</style><linearGradient id="linear-gradient" x1="68.08" y1="955.92" x2="955.92" y2="68.08" gradientUnits="userSpaceOnUse"><stop offset="0" stop-color="#385f95"/><stop offset="1" stop-color="#669fec"/></linearGradient><symbol id="Icon" viewBox="0 0 1024 1024"><g><path id="App_Icon_Placeholder" class="cls-2" d="M356.99,0h310c102.81,0,154.19,0,209.53,17.49,60.42,21.99,108,69.58,129.98,129.99,17.5,55.34,17.5,106.73,17.5,209.53v309.98c0,102.8,0,154.19-17.5,209.53-21.98,60.42-69.57,108-129.98,129.98-55.33,17.5-106.72,17.5-209.53,17.5H356.99c-102.79,0-154.18,0-209.51-17.5-60.42-21.98-108-69.57-129.98-129.98C0,821.18,0,769.79,0,666.99V357.01c0-102.79,0-154.18,17.5-209.53C39.48,87.07,87.07,39.48,147.48,17.49,202.82,0,254.2,0,356.99,0h0"/><path id="coinvault" class="cls-1" d="M516.6,157.55c7.01-2.48,14.59-.46,20.6,3.46,84.79,48.99,169.58,97.94,254.41,146.82,4.62,2.75,9.59,5.11,13.63,8.76,7.51,6.93,8.98,19.35,3.3,27.83-4.89,6.59-12.77,9.67-19.56,13.79-43.51,25.08-87.01,50.25-130.56,75.37-6.73,3.68-15.57,3.79-22.09-.46-33.74-19.18-67.23-38.82-100.91-58.16-7.17-4.62-16.62-4.48-23.83,.03-34.18,19.81-68.55,39.35-102.65,59.31-7.39,4.13-10.17,12.97-9.83,21,0,37.59-.03,75.2,0,112.78-.52,8.73,3.65,17.74,11.53,21.93,32.12,18.52,64.23,37.01,96.29,55.64,16.22,8.6,17.32,8.51,33.52-.28,31.87-18.66,63.99-36.84,95.86-55.47,7.28-4.53,16.79-3.82,23.87,.75,47.03,27.15,94.07,54.26,141.09,81.47,13.43,7.34,14.42,29.01,.99,36.87-87.1,50.47-174.38,100.62-261.48,151.09-7.89,5.52-18.6,9.59-27.56,3.9-96.49-55.47-192.76-111.31-289.19-166.86-7.83-4.15-11.65-13.29-11.01-21.9,0-109.02-.03-218.06,0-327.09-.52-8.49,3-17.64,10.72-21.87,92.94-53.63,185.84-107.35,278.76-161,4.66-2.63,9.11-5.72,14.11-7.69Z"/></g></symbol></defs><g id="App_Icon_and_Badge"><g id="Main-2"><use width="1024" height="1024" xlink:href="#Icon"/></g></g></svg>